<svg width="22.000031" height="22.000000" viewBox="0 0 22 22" fill="none" xmlns="http://www.w3.org/2000/svg" xmlns:xlink="http://www.w3.org/1999/xlink">
	<desc>
			Created with Pixso.
	</desc>
	<defs/>
	<path id="Vector" d="M11.6509 12.2834C11.5657 12.3694 11.4643 12.4376 11.3526 12.4841C11.2409 12.5306 11.1211 12.5547 11 12.5547C10.879 12.5547 10.7592 12.5306 10.6475 12.4841C10.5358 12.4376 10.4344 12.3694 10.3492 12.2834L6.15088 8.07605C6.06564 7.99011 5.96426 7.92188 5.85257 7.87537C5.74088 7.82886 5.62103 7.80481 5.50003 7.80481C5.37903 7.80481 5.25922 7.82886 5.14752 7.87537C5.0358 7.92188 4.93442 7.99011 4.84921 8.07605C4.67847 8.2478 4.58264 8.4801 4.58264 8.72229C4.58264 8.96448 4.67847 9.19678 4.84921 9.36853L9.0567 13.576C9.57233 14.0909 10.2713 14.3802 11 14.3802C11.7288 14.3802 12.4278 14.0909 12.9434 13.576L17.1509 9.36853C17.3202 9.19775 17.4157 8.96729 17.4167 8.72681C17.4174 8.6062 17.3943 8.48657 17.3487 8.37488C17.3031 8.26318 17.2358 8.16162 17.1509 8.07605C17.0657 7.99011 16.9643 7.92188 16.8526 7.87537C16.7409 7.82886 16.6211 7.80481 16.5001 7.80481C16.379 7.80481 16.2592 7.82886 16.1475 7.87537C16.0358 7.92188 15.9344 7.99011 15.8492 8.07605L11.6509 12.2834Z" fill="#FD9222" fill-opacity="1.000000" fill-rule="nonzero"/>
</svg>
